<svg xmlns="http://www.w3.org/2000/svg" xmlns:xlink="http://www.w3.org/1999/xlink" viewBox="0 0 1328 746"><defs><style>.cls-1{fill:#fff;}.cls-17,.cls-2{font-size:12px;}.cls-14,.cls-2,.cls-32,.cls-35{font-family:NotoSans, Noto Sans;}.cls-3{letter-spacing:-0.03em;}.cls-4{letter-spacing:-0.01em;}.cls-12,.cls-16,.cls-22,.cls-24,.cls-26,.cls-27,.cls-31,.cls-34,.cls-5{fill:none;}.cls-12,.cls-16,.cls-26,.cls-27,.cls-28,.cls-31,.cls-34,.cls-5{stroke:#000;}.cls-12,.cls-13,.cls-16,.cls-22,.cls-26,.cls-27,.cls-28,.cls-29,.cls-31,.cls-34,.cls-5,.cls-7{stroke-miterlimit:10;}.cls-12,.cls-5{stroke-width:4px;}.cls-34,.cls-5{stroke-dasharray:3;}.cls-6{fill:#e6e6e6;}.cls-7{fill:#2accff;}.cls-13,.cls-22,.cls-29,.cls-7{stroke:#1a1a1a;}.cls-14,.cls-25,.cls-8{font-size:14px;}.cls-8{font-family:NotoSans-Bold, Noto Sans;}.cls-9{font-weight:700;}.cls-10{letter-spacing:0em;}.cls-11,.cls-17,.cls-25,.cls-33{font-family:MyriadPro-Regular, Myriad Pro;}.cls-13{fill:aqua;}.cls-15{fill:#534741;}.cls-16{stroke-dasharray:3 3;}.cls-18{letter-spacing:0.01em;}.cls-19{letter-spacing:-0.01em;}.cls-20{letter-spacing:0.01em;}.cls-21{letter-spacing:-0.01em;}.cls-23{fill:#1a1a1a;}.cls-26{stroke-dasharray:2;}.cls-27{stroke-dasharray:2 2;}.cls-28{fill:#2f0035;}.cls-29{fill:#f1ffaa;}.cls-30{letter-spacing:-0.04em;}.cls-31{stroke-width:5px;}.cls-32{font-size:10px;}.cls-33{font-size:18px;}.cls-34{stroke-width:3px;}.cls-35{font-size:11px;}</style><symbol id="Tools" data-name="Tools" viewBox="0 0 62 62"><path d="M51.78,41.56h0c-.2,0-.38,0-.57,0L31.89,22.27a4.85,4.85,0,0,0-5-1.14l3-8.84a5.08,5.08,0,0,0-1.1-4.69L22.48,1.29A5.08,5.08,0,0,0,17.79.19L14,1.48a1.54,1.54,0,0,0-1.11,1,1.51,1.51,0,0,0,.56,1.39l4.06,4.05a3.7,3.7,0,0,1,0,5.22l-4.36,4.36a3.68,3.68,0,0,1-2.6,1.07A3.64,3.64,0,0,1,7.93,17.5l-4-4.05a1.52,1.52,0,0,0-1.4-.56,1.54,1.54,0,0,0-1,1.11L.19,17.79a5.06,5.06,0,0,0,1.1,4.69L7.6,28.8a5.08,5.08,0,0,0,4.68,1.09l8.85-3a4.85,4.85,0,0,0,1.14,5L41.59,51.21a5.44,5.44,0,0,0,0,.57A10.22,10.22,0,1,0,51.78,41.56Zm0,15.58a5.36,5.36,0,1,1,5.35-5.36A5.37,5.37,0,0,1,51.78,57.14Z"/></symbol><symbol id="Check" data-name="Check" viewBox="0 0 64 64"><path d="M54.63,9.37a32,32,0,1,0,0,45.26A31.9,31.9,0,0,0,54.63,9.37ZM51.09,51.09A27,27,0,0,1,12.91,12.91,27,27,0,0,1,51.09,51.09Z"/><polygon points="27.62 33.54 21.02 26.37 13.73 33.67 13.73 33.66 27.48 47.42 50.71 24.18 45.4 18.79 27.62 33.54"/></symbol><symbol id="Search_2" data-name="Search 2" viewBox="0 0 63.19 61.3"><path d="M.52,54a2,2,0,0,1,.13-2.83L17.56,35.78a2,2,0,0,1,2.83.14l6,6.68a2,2,0,0,1-.13,2.82L9.38,60.78a2,2,0,0,1-2.83-.13Z"/><path d="M41.05,0A22.14,22.14,0,1,1,20.13,14.9,22.1,22.1,0,0,1,41.05,0m0,6A16.16,16.16,0,0,0,25.8,16.87a16.15,16.15,0,0,0,10,20.52,16.13,16.13,0,0,0,20.53-10,16.13,16.13,0,0,0-10-20.53h0A16.22,16.22,0,0,0,41.05,6Z"/></symbol><symbol id="Restricted" data-name="Restricted" viewBox="0 0 64 64"><path d="M54.63,9.37a32,32,0,1,0,0,45.26A31.9,31.9,0,0,0,54.63,9.37ZM12.91,12.91A27,27,0,0,1,47.13,9.63L9.63,47.12a27,27,0,0,1,3.28-34.21ZM51.09,51.09a27,27,0,0,1-34.22,3.28l37.5-37.49A27,27,0,0,1,51.09,51.09Z"/></symbol></defs><title>release</title><g id="bg"><rect class="cls-1" x="165" width="1163" height="737"/><text class="cls-2" transform="translate(667 99.12)"><tspan class="cls-3">T</tspan><tspan x="6.26" y="0">esters test closed issues for the </tspan><tspan class="cls-4" x="185.86" y="0">r</tspan><tspan x="190.7" y="0">elease</tspan></text><line class="cls-5" x1="169.5" y1="497.5" x2="597" y2="497"/></g><g id="diagram"><rect class="cls-6" x="1150" y="79" width="145" height="173"/><rect class="cls-7" x="464.5" y="140.5" width="100" height="30"/><rect class="cls-7" x="331.5" y="218.5" width="100" height="30"/><text class="cls-8" transform="translate(318.23 63.64)"><tspan class="cls-9">Continuous <tspan class="cls-3" x="84.01" y="0">T</tspan><tspan x="91.64" y="0">esting</tspan></tspan><tspan class="cls-2"><tspan x="-40.5" y="14.4">D</tspan><tspan class="cls-4" x="-31.74" y="14.4">e</tspan><tspan x="-25.09" y="14.4">v Server (d</tspan><tspan class="cls-4" x="35" y="14.4">e</tspan><tspan x="41.65" y="14.4">vb.cnx.o</tspan><tspan class="cls-10" x="88.34" y="14.4">r</tspan><tspan x="93.24" y="14.4">g, d</tspan><tspan class="cls-4" x="114.12" y="14.4">e</tspan><tspan x="120.77" y="14.4">v.cnx.o</tspan><tspan class="cls-10" x="160.08" y="14.4">r</tspan><tspan x="164.98" y="14.4">g</tspan><tspan class="cls-11" x="172.36" y="14.4">)</tspan></tspan></text><text x="165"></text><text x="165"></text><text class="cls-8" transform="translate(707.95 63.64)"><tspan class="cls-9">Reg<tspan class="cls-4" x="26.37" y="0">r</tspan><tspan x="32.59" y="0">ession </tspan><tspan class="cls-3" x="80.56" y="0">T</tspan><tspan x="88.19" y="0">esting</tspan></tspan><tspan class="cls-2"><tspan x="-24.76" y="14.4">Staging Server (staging.cnx.o</tspan><tspan class="cls-10" x="140.07" y="14.4">r</tspan><tspan x="144.97" y="14.4">g)</tspan></tspan></text><text class="cls-8" transform="translate(1035.22 66.64)"><tspan class="cls-9">Release</tspan><tspan class="cls-2"><tspan x="-23.76" y="14.4">P</tspan><tspan class="cls-4" x="-16.5" y="14.4">r</tspan><tspan x="-11.66" y="14.4">oduction Server</tspan></tspan></text><line class="cls-12" x1="599" y1="53" x2="599" y2="737"/><line class="cls-12" x1="964" y1="50" x2="968" y2="737"/><rect class="cls-13" x="331" y="136" width="100" height="30"/><text class="cls-14" transform="translate(345.69 157.4)">Issue #333</text><line class="cls-15" x1="379.5" y1="170.5" x2="379.5" y2="214"/><line class="cls-16" x1="379.5" y1="170.5" x2="379.5" y2="212.8"/><path d="M209.7,206a.49.49,0,0,1,.69.16l4.11,6.45,4.11-6.45a.49.49,0,0,1,.69-.16.5.5,0,0,1,.15.69l-4.53,7.12a.5.5,0,0,1-.84,0l-4.53-7.12a.42.42,0,0,1-.08-.26A.51.51,0,0,1,209.7,206Z" transform="translate(165)"/><text class="cls-14" transform="translate(355.46 237.4)">PR #123</text><text class="cls-14" transform="translate(1163.48 123.52)">D<tspan class="cls-4" x="10.22" y="0">e</tspan><tspan x="17.98" y="0">veloper:</tspan><tspan class="cls-3" x="0" y="28">T</tspan><tspan x="7.31" y="28">ester: </tspan><tspan x="0" y="56">App</tspan><tspan class="cls-4" x="26.17" y="56">ro</tspan><tspan x="40.15" y="56">ved:</tspan><tspan x="0" y="84">Rejected: </tspan></text><text class="cls-17" transform="translate(479.13 153.28)"><tspan class="cls-18">M</tspan><tspan x="9.79" y="0">iles</tspan><tspan class="cls-19" x="26.2" y="0">t</tspan><tspan x="30.1" y="0">one PR</tspan><tspan x="8.8" y="11">or </tspan><tspan class="cls-20" x="21.85" y="11">M</tspan><tspan x="31.57" y="11">as</tspan><tspan class="cls-21" x="42.11" y="11">t</tspan><tspan x="46.01" y="11">er</tspan></text><text class="cls-14" transform="translate(185.89 262.4)">code <tspan class="cls-4" x="35.33" y="0">re</tspan><tspan x="48.74" y="0">vi</tspan><tspan class="cls-4" x="59.46" y="0">e</tspan><tspan x="67.22" y="0">w</tspan></text><line class="cls-22" x1="269.08" y1="233.5" x2="310" y2="233.5"/><polygon class="cls-23" points="272.4 237.59 273.08 236.86 269.47 233.5 273.08 230.14 272.4 229.41 268 233.5 272.4 237.59"/><line class="cls-24" x1="375" y1="379" x2="373" y2="379"/><line class="cls-22" x1="268" y1="241.5" x2="308.92" y2="241.5"/><polygon class="cls-23" points="305.6 245.59 304.92 244.86 308.53 241.5 304.92 238.14 305.6 237.41 310 241.5 305.6 245.59"/><line class="cls-22" x1="477.5" y1="233.5" x2="430.5" y2="233.5"/><line class="cls-22" x1="477.5" y1="183.68" x2="477.5" y2="233.5"/><polygon class="cls-23" points="472.51 185.13 477.5 176.5 482.49 185.13 472.51 185.13"/><rect class="cls-13" x="332" y="413" width="100" height="30"/><text class="cls-14" transform="translate(346.7 427.02)">Issue #333</text><use width="62" height="62" transform="translate(415 125) scale(0.35 0.36)" xlink:href="#Tools"/><use width="62" height="62" transform="translate(415 207) scale(0.35 0.36)" xlink:href="#Tools"/><use width="62" height="62" transform="translate(213.73 211.87) rotate(45) scale(0.35 0.36)" xlink:href="#Tools"/><use width="62" height="62" transform="translate(222.92 221.07) rotate(45) scale(0.35 0.36)" xlink:href="#Tools"/><use width="62" height="62" transform="translate(233.52 216.12) rotate(45) scale(0.35 0.36)" xlink:href="#Tools"/><use width="62" height="62" transform="translate(1250 108) scale(0.35 0.36)" xlink:href="#Tools"/><use width="64" height="64" transform="translate(414 425) scale(0.25 0.25)" xlink:href="#Check"/><use width="63.19" height="61.3" transform="translate(326 401.3) scale(0.3 0.31)" xlink:href="#Search_2"/><use width="63.19" height="61.3" transform="translate(1253 139.3) scale(0.3 0.31)" xlink:href="#Search_2"/><rect class="cls-13" x="331" y="281" width="100" height="30"/><text class="cls-25" transform="translate(350.68 295.7)">Issue #333</text><use width="63.19" height="61.3" transform="translate(323 269.3) scale(0.3 0.31)" xlink:href="#Search_2"/><use width="64" height="64" transform="translate(414 294) scale(0.23 0.23)" xlink:href="#Restricted"/><rect class="cls-7" x="331.5" y="354.5" width="100" height="30"/><text class="cls-14" transform="translate(355.46 373.4)">PR #125</text><use width="62" height="62" transform="translate(415 343) scale(0.35 0.36)" xlink:href="#Tools"/><line class="cls-26" x1="534.5" y1="170" x2="534.5" y2="427.5"/><line class="cls-27" x1="491" y1="300.5" x2="444.68" y2="300.5"/><polygon points="446.13 295.51 437.5 300.5 446.13 305.49 446.13 295.51"/><line class="cls-22" x1="510.5" y1="373.5" x2="431.5" y2="375.5"/><line class="cls-22" x1="510.5" y1="183.68" x2="510.5" y2="373.5"/><polygon class="cls-23" points="505.51 185.13 510.5 176.5 515.49 185.13 505.51 185.13"/><line class="cls-26" x1="492.5" y1="171" x2="492.5" y2="301.5"/><line class="cls-27" x1="534.5" y1="427.5" x2="444.68" y2="427.5"/><polygon points="446.13 422.51 437.5 427.5 446.13 432.49 446.13 422.51"/><text class="cls-14" transform="translate(187.89 401.4)">code <tspan class="cls-4" x="35.33" y="0">re</tspan><tspan x="48.74" y="0">vi</tspan><tspan class="cls-4" x="59.46" y="0">e</tspan><tspan x="67.22" y="0">w</tspan></text><line class="cls-22" x1="269.08" y1="370.5" x2="310" y2="370.5"/><polygon class="cls-23" points="272.4 374.59 273.08 373.86 269.47 370.5 273.08 367.14 272.4 366.41 268 370.5 272.4 374.59"/><line class="cls-22" x1="268" y1="378.5" x2="308.92" y2="378.5"/><polygon class="cls-23" points="305.6 382.59 304.92 381.86 308.53 378.5 304.92 375.14 305.6 374.41 310 378.5 305.6 382.59"/><use width="62" height="62" transform="translate(215.73 350.87) rotate(45) scale(0.35 0.36)" xlink:href="#Tools"/><use width="62" height="62" transform="translate(224.92 360.07) rotate(45) scale(0.35 0.36)" xlink:href="#Tools"/><use width="62" height="62" transform="translate(235.52 355.12) rotate(45) scale(0.35 0.36)" xlink:href="#Tools"/><line class="cls-15" x1="381.5" y1="316" x2="381.5" y2="350"/><line class="cls-16" x1="381.5" y1="316" x2="381.5" y2="348.8"/><path d="M211.7,342a.49.49,0,0,1,.69.16l4.11,6.45,4.11-6.45a.49.49,0,0,1,.69-.16.5.5,0,0,1,.15.69l-4.53,7.12a.5.5,0,0,1-.84,0l-4.53-7.12a.42.42,0,0,1-.08-.26A.51.51,0,0,1,211.7,342Z" transform="translate(165)"/><line class="cls-28" x1="548" y1="171" x2="547.5" y2="244.5"/><rect class="cls-29" x="547.5" y="214.5" width="100" height="62"/><text class="cls-14" transform="translate(567.48 233.4)"><tspan class="cls-30">T</tspan><tspan x="7.24" y="0">ag Repo</tspan></text><line class="cls-31" x1="648" y1="254.5" x2="697.29" y2="254.5"/><polygon points="687.33 262.98 695.81 254.5 687.33 246.02 694.52 246.02 703 254.5 694.52 262.98 687.33 262.98"/><text class="cls-32" transform="translate(571.85 31.1)">Code f<tspan class="cls-4" x="30.2" y="0">r</tspan><tspan x="34.23" y="0">e</tspan><tspan class="cls-10" x="39.87" y="0">e</tspan><tspan x="45.46" y="0">ze </tspan><tspan x="-28.09" y="11">- </tspan><tspan class="cls-4" x="-22.1" y="11">e</tspan><tspan x="-16.56" y="11">very other Thursday - </tspan></text><text class="cls-32" transform="translate(664.14 229.6)">Depl<tspan class="cls-4" x="21.67" y="0">o</tspan><tspan x="27.62" y="0">y </tspan><tspan x="-7.65" y="11">to Staging</tspan></text><rect class="cls-13" x="720" y="629" width="100" height="30"/><text class="cls-25" transform="translate(739.68 643.7)">Issue #333</text><use width="64" height="64" transform="translate(802 641) scale(0.25 0.25)" xlink:href="#Check"/><use width="63.19" height="61.3" transform="translate(714 617.3) scale(0.3 0.31)" xlink:href="#Search_2"/><text x="165"></text><text x="165"></text><rect class="cls-13" x="719" y="239" width="100" height="30"/><text class="cls-25" transform="translate(738.68 254.7)">Issue #333</text><use width="63.19" height="61.3" transform="translate(711 227.3) scale(0.3 0.31)" xlink:href="#Search_2"/><use width="64" height="64" transform="translate(802 252) scale(0.23 0.23)" xlink:href="#Restricted"/><line class="cls-22" x1="768.5" y1="269" x2="768.5" y2="555.5"/><line class="cls-22" x1="576.68" y1="555.5" x2="768.5" y2="555.5"/><polygon class="cls-23" points="578.13 560.49 569.5 555.5 578.13 550.51 578.13 560.49"/><rect class="cls-7" x="464.5" y="538.5" width="100" height="30"/><text class="cls-32" transform="translate(468.77 550.36)">Junior Milestone PR<tspan x="22.91" y="11">or Master</tspan></text><rect class="cls-13" x="329" y="619" width="100" height="30"/><text class="cls-14" transform="translate(343.69 640.4)">Issue #333</text><use width="62" height="62" transform="translate(417 608) scale(0.35 0.36)" xlink:href="#Tools"/><text class="cls-14" transform="translate(346.89 583.4)">code <tspan class="cls-4" x="35.33" y="0">re</tspan><tspan x="48.74" y="0">vi</tspan><tspan class="cls-4" x="59.46" y="0">e</tspan><tspan x="67.22" y="0">w</tspan></text><line class="cls-22" x1="415.08" y1="553.5" x2="456" y2="553.5"/><polygon class="cls-23" points="418.4 557.59 419.08 556.86 415.47 553.5 419.08 550.14 418.4 549.41 414 553.5 418.4 557.59"/><line class="cls-22" x1="414" y1="561.5" x2="454.92" y2="561.5"/><polygon class="cls-23" points="451.6 565.59 450.92 564.86 454.53 561.5 450.92 558.14 451.6 557.41 456 561.5 451.6 565.59"/><use width="62" height="62" transform="translate(374.73 533.87) rotate(45) scale(0.35 0.36)" xlink:href="#Tools"/><use width="62" height="62" transform="translate(383.92 543.07) rotate(45) scale(0.35 0.36)" xlink:href="#Tools"/><use width="62" height="62" transform="translate(394.52 538.12) rotate(45) scale(0.35 0.36)" xlink:href="#Tools"/><text x="165"></text><text x="165"></text><rect class="cls-13" x="331" y="679" width="100" height="30"/><text class="cls-14" transform="translate(345.69 692.4)">Issue #333</text><use width="63.19" height="61.3" transform="translate(323 667.3) scale(0.3 0.31)" xlink:href="#Search_2"/><line class="cls-27" x1="520.5" y1="699.5" x2="444.68" y2="698.59"/><polygon points="446.19 693.62 437.5 698.5 446.07 703.59 446.19 693.62"/><line class="cls-26" x1="520.5" y1="569" x2="520.5" y2="699.5"/><use width="64" height="64" transform="translate(414 691) scale(0.25 0.25)" xlink:href="#Check"/><rect class="cls-29" x="549.5" y="611.5" width="100" height="56"/><text class="cls-14" transform="translate(569.48 630.4)"><tspan class="cls-30">T</tspan><tspan x="7.24" y="0">ag Repo</tspan></text><line class="cls-31" x1="650.5" y1="645.5" x2="706.29" y2="645.5"/><polygon points="696.33 653.98 704.81 645.5 696.33 637.02 703.52 637.02 712 645.5 703.52 653.98 696.33 653.98"/><text class="cls-32" transform="translate(667.14 619.6)">Depl<tspan class="cls-4" x="21.67" y="0">o</tspan><tspan x="27.62" y="0">y </tspan><tspan x="-7.65" y="11">to Staging</tspan></text><line class="cls-28" x1="550" y1="569" x2="549.5" y2="640.5"/><line class="cls-31" x1="820" y1="646.5" x2="1056.79" y2="646.5"/><polygon points="1046.83 654.98 1055.31 646.5 1046.83 638.02 1054.02 638.02 1062.5 646.5 1054.02 654.98 1046.83 654.98"/><text class="cls-32" transform="translate(1000.14 622.6)">Depl<tspan class="cls-4" x="21.67" y="0">o</tspan><tspan x="27.62" y="0">y </tspan><tspan x="-15.61" y="11">to P</tspan><tspan class="cls-4" x="2.7" y="11">r</tspan><tspan x="6.73" y="11">oduction</tspan></text><text class="cls-32" transform="translate(934.56 26.1)">Code Release<tspan x="-58.37" y="11">- Monday one week after code f</tspan><tspan class="cls-4" x="89.65" y="11">r</tspan><tspan x="93.68" y="11">e</tspan><tspan class="cls-10" x="99.32" y="11">e</tspan><tspan x="104.91" y="11">ze - </tspan></text><text class="cls-32" transform="translate(564.45 248.27)">major version<tspan x="8.52" y="11" xml:space="preserve"> (i.e. 1.5.0)</tspan></text><text class="cls-32" transform="translate(567.17 646.27)">minor version<tspan x="8.8" y="11" xml:space="preserve"> (i.e. 1.5.1)</tspan></text><use width="64" height="64" transform="translate(1254 197) scale(0.23 0.23)" xlink:href="#Restricted"/><use width="64" height="64" transform="translate(1254 169) scale(0.25 0.25)" xlink:href="#Check"/><text class="cls-33" transform="translate(758.12 199.45)">or</text><rect class="cls-13" x="717" y="132" width="100" height="30"/><text class="cls-25" transform="translate(736.68 146.7)">Issue #333</text><use width="64" height="64" transform="translate(799 144) scale(0.25 0.25)" xlink:href="#Check"/><use width="63.19" height="61.3" transform="translate(711 120.3) scale(0.3 0.31)" xlink:href="#Search_2"/><line class="cls-31" x1="817" y1="150.5" x2="1047.79" y2="150.5"/><polygon points="1037.83 158.98 1046.31 150.5 1037.83 142.02 1045.02 142.02 1053.5 150.5 1045.02 158.98 1037.83 158.98"/><text class="cls-32" transform="translate(994.14 125.6)">Depl<tspan class="cls-4" x="21.67" y="0">o</tspan><tspan x="27.62" y="0">y </tspan><tspan x="-15.61" y="11">to P</tspan><tspan class="cls-4" x="2.7" y="11">r</tspan><tspan x="6.73" y="11">oduction</tspan></text><line class="cls-5" x1="600.5" y1="193.5" x2="743" y2="193.5"/><line class="cls-34" x1="788.5" y1="193.5" x2="968.5" y2="193.5"/><line class="cls-22" x1="497.5" y1="576.18" x2="497.5" y2="635.5"/><polygon class="cls-23" points="492.51 577.63 497.5 569 502.49 577.63 492.51 577.63"/><line class="cls-22" x1="497.5" y1="635.5" x2="428" y2="636.5"/><text class="cls-35" transform="translate(331 721.36)">issue is closed</text><text class="cls-35" transform="translate(331 454.36)"><tspan xml:space="preserve"> issue is closed</tspan></text><text class="cls-35" transform="translate(194.98 149.36)">an issue is opened and <tspan x="28.12" y="13.2">assigned to a d</tspan><tspan class="cls-4" x="106.34" y="13.2">e</tspan><tspan x="112.43" y="13.2">v</tspan></text><text x="165"></text><text class="cls-35" transform="translate(326.91 612.36)"><tspan xml:space="preserve"> issue is </tspan><tspan class="cls-4" x="43.05" y="0">r</tspan><tspan x="47.49" y="0">eopened</tspan></text></g></svg>